<mxfile host="app.diagrams.net" modified="2020-05-15T03:06:11.847Z" agent="5.0 (Macintosh; Intel Mac OS X 10_15_4) AppleWebKit/537.36 (KHTML, like Gecko) Chrome/81.0.4044.138 Safari/537.36" etag="pyF5-OULcN3U3MHNPBTW" version="13.1.1" type="github">
  <diagram id="prtHgNgQTEPvFCAcTncT" name="Page-1">
    <mxGraphModel dx="1186" dy="665" grid="1" gridSize="10" guides="1" tooltips="1" connect="1" arrows="1" fold="1" page="1" pageScale="1" pageWidth="827" pageHeight="1169" math="0" shadow="0">
      <root>
        <mxCell id="0" />
        <mxCell id="1" parent="0" />
        <mxCell id="C62y-zeLqPsFe83c5_De-19" value="" style="edgeStyle=orthogonalEdgeStyle;rounded=0;orthogonalLoop=1;jettySize=auto;html=1;fontSize=12;" edge="1" parent="1" source="C62y-zeLqPsFe83c5_De-1" target="C62y-zeLqPsFe83c5_De-15">
          <mxGeometry relative="1" as="geometry" />
        </mxCell>
        <mxCell id="C62y-zeLqPsFe83c5_De-1" value="" style="rounded=0;whiteSpace=wrap;html=1;fillColor=#dae8fc;strokeColor=#6c8ebf;" vertex="1" parent="1">
          <mxGeometry x="190" y="420" width="480" height="60" as="geometry" />
        </mxCell>
        <mxCell id="C62y-zeLqPsFe83c5_De-2" value="应用层" style="text;html=1;resizable=0;autosize=1;align=center;verticalAlign=middle;points=[];fillColor=none;strokeColor=none;rounded=0;fontSize=18;" vertex="1" parent="1">
          <mxGeometry x="201" y="435" width="70" height="30" as="geometry" />
        </mxCell>
        <mxCell id="C62y-zeLqPsFe83c5_De-3" value="首页" style="rounded=0;whiteSpace=wrap;html=1;fontSize=12;fillColor=#e1d5e7;strokeColor=#9673a6;" vertex="1" parent="1">
          <mxGeometry x="290" y="435" width="60" height="30" as="geometry" />
        </mxCell>
        <mxCell id="C62y-zeLqPsFe83c5_De-4" value="详情" style="rounded=0;whiteSpace=wrap;html=1;fontSize=12;fillColor=#e1d5e7;strokeColor=#9673a6;" vertex="1" parent="1">
          <mxGeometry x="450" y="435" width="60" height="30" as="geometry" />
        </mxCell>
        <mxCell id="C62y-zeLqPsFe83c5_De-5" value="列表" style="rounded=0;whiteSpace=wrap;html=1;fontSize=12;fillColor=#e1d5e7;strokeColor=#9673a6;" vertex="1" parent="1">
          <mxGeometry x="370" y="435" width="60" height="30" as="geometry" />
        </mxCell>
        <mxCell id="C62y-zeLqPsFe83c5_De-6" value="个人中心" style="rounded=0;whiteSpace=wrap;html=1;fontSize=12;fillColor=#e1d5e7;strokeColor=#9673a6;" vertex="1" parent="1">
          <mxGeometry x="520" y="435" width="60" height="30" as="geometry" />
        </mxCell>
        <mxCell id="C62y-zeLqPsFe83c5_De-7" value="..." style="rounded=0;whiteSpace=wrap;html=1;fontSize=12;fillColor=#e1d5e7;strokeColor=#9673a6;" vertex="1" parent="1">
          <mxGeometry x="590" y="435" width="60" height="30" as="geometry" />
        </mxCell>
        <mxCell id="C62y-zeLqPsFe83c5_De-18" value="" style="edgeStyle=orthogonalEdgeStyle;rounded=0;orthogonalLoop=1;jettySize=auto;html=1;fontSize=12;" edge="1" parent="1" source="C62y-zeLqPsFe83c5_De-9" target="C62y-zeLqPsFe83c5_De-1">
          <mxGeometry relative="1" as="geometry" />
        </mxCell>
        <mxCell id="C62y-zeLqPsFe83c5_De-9" value="" style="rounded=0;whiteSpace=wrap;html=1;fillColor=#d5e8d4;strokeColor=#82b366;" vertex="1" parent="1">
          <mxGeometry x="190" y="240" width="480" height="140" as="geometry" />
        </mxCell>
        <mxCell id="C62y-zeLqPsFe83c5_De-10" value="路由层" style="text;html=1;resizable=0;autosize=1;align=center;verticalAlign=middle;points=[];fillColor=none;strokeColor=none;rounded=0;fontSize=18;" vertex="1" parent="1">
          <mxGeometry x="201" y="295" width="70" height="30" as="geometry" />
        </mxCell>
        <mxCell id="C62y-zeLqPsFe83c5_De-11" value="客户端单页路由" style="rounded=0;whiteSpace=wrap;html=1;fontSize=12;fillColor=#1ba1e2;strokeColor=#006EAF;fontColor=#ffffff;" vertex="1" parent="1">
          <mxGeometry x="380" y="325" width="110" height="40" as="geometry" />
        </mxCell>
        <mxCell id="C62y-zeLqPsFe83c5_De-13" value="服务端多页路由" style="rounded=0;whiteSpace=wrap;html=1;fontSize=12;fillColor=#1ba1e2;strokeColor=#006EAF;fontColor=#ffffff;" vertex="1" parent="1">
          <mxGeometry x="380" y="260" width="110" height="40" as="geometry" />
        </mxCell>
        <mxCell id="C62y-zeLqPsFe83c5_De-21" value="" style="edgeStyle=orthogonalEdgeStyle;rounded=0;orthogonalLoop=1;jettySize=auto;html=1;fontSize=12;" edge="1" parent="1" source="C62y-zeLqPsFe83c5_De-15" target="C62y-zeLqPsFe83c5_De-16">
          <mxGeometry relative="1" as="geometry" />
        </mxCell>
        <mxCell id="C62y-zeLqPsFe83c5_De-15" value="Node 中间层" style="rounded=0;whiteSpace=wrap;html=1;fillColor=#ffe6cc;strokeColor=#d79b00;" vertex="1" parent="1">
          <mxGeometry x="190" y="520" width="480" height="60" as="geometry" />
        </mxCell>
        <mxCell id="C62y-zeLqPsFe83c5_De-16" value="API 服务层" style="rounded=0;whiteSpace=wrap;html=1;fillColor=#fff2cc;strokeColor=#d6b656;" vertex="1" parent="1">
          <mxGeometry x="190" y="620" width="480" height="60" as="geometry" />
        </mxCell>
        <mxCell id="C62y-zeLqPsFe83c5_De-17" style="edgeStyle=orthogonalEdgeStyle;rounded=0;orthogonalLoop=1;jettySize=auto;html=1;exitX=0.5;exitY=1;exitDx=0;exitDy=0;fontSize=12;" edge="1" parent="1" source="C62y-zeLqPsFe83c5_De-9" target="C62y-zeLqPsFe83c5_De-9">
          <mxGeometry relative="1" as="geometry" />
        </mxCell>
      </root>
    </mxGraphModel>
  </diagram>
</mxfile>
